<mxfile host="65bd71144e" modified="2021-03-11T07:08:26.814Z" agent="5.0 (Macintosh; Intel Mac OS X 11_2_1) AppleWebKit/537.36 (KHTML, like Gecko) Code/1.54.1 Chrome/87.0.4280.141 Electron/11.3.0 Safari/537.36" version="14.2.4" etag="ZLRKSRAuGuSwkdyq0pa5" type="embed">
    <diagram id="mTlsA9jivwS7SDFj11y7" name="Page-1">
        <mxGraphModel dx="971" dy="741" grid="1" gridSize="10" guides="1" tooltips="1" connect="1" arrows="1" fold="1" page="1" pageScale="1" pageWidth="1169" pageHeight="827" background="#F4F1DE" math="0" shadow="0">
            <root>
                <mxCell id="0"/>
                <mxCell id="1" parent="0"/>
                <mxCell id="2" value="" style="shape=rect;fillColor=#ffffff;strokeColor=#eeeeee;shadow=1;rounded=0;sketch=0;fontColor=#393C56;" vertex="1" parent="1">
                    <mxGeometry x="305" y="310" width="280" height="300" as="geometry"/>
                </mxCell>
                <mxCell id="3" value="orders: index.html.erb" style="text;fontSize=19;fontColor=#000000;align=left;spacing=16;verticalAlign=middle;fontStyle=1;resizeWidth=1;" vertex="1" parent="2">
                    <mxGeometry width="280" height="68" relative="1" as="geometry"/>
                </mxCell>
                <mxCell id="4" value="Main Behavior:" style="text;fontSize=15;fontColor=#000000;align=left;spacing=16;fillColor=#e0e0e0;verticalAlign=middle;resizeWidth=1;" vertex="1" parent="2">
                    <mxGeometry width="280" height="50" relative="1" as="geometry">
                        <mxPoint y="68" as="offset"/>
                    </mxGeometry>
                </mxCell>
                <mxCell id="5" value="Send Address input data" style="text;fontSize=15;fontColor=#000000;align=left;spacing=16;verticalAlign=middle;whiteSpace=wrap;resizeWidth=1;" vertex="1" parent="2">
                    <mxGeometry width="280" height="70" relative="1" as="geometry">
                        <mxPoint y="118" as="offset"/>
                    </mxGeometry>
                </mxCell>
                <mxCell id="6" value="Send Orders input data" style="text;fontSize=15;fontColor=#000000;align=left;spacing=16;verticalAlign=middle;resizeWidth=1;" vertex="1" parent="2">
                    <mxGeometry width="280" height="50" relative="1" as="geometry">
                        <mxPoint y="188" as="offset"/>
                    </mxGeometry>
                </mxCell>
                <mxCell id="7" value="Send secure transaction to Pay.jpÂ " style="text;fontSize=15;fontColor=#000000;align=left;spacing=16;verticalAlign=middle;whiteSpace=wrap;resizeWidth=1;" vertex="1" parent="2">
                    <mxGeometry width="280" height="70" relative="1" as="geometry">
                        <mxPoint y="234" as="offset"/>
                    </mxGeometry>
                </mxCell>
                <mxCell id="8" style="edgeStyle=orthogonalEdgeStyle;curved=0;rounded=1;sketch=0;orthogonalLoop=1;jettySize=auto;html=1;exitX=0.5;exitY=1;exitDx=0;exitDy=0;strokeColor=#E07A5F;fillColor=#F2CC8F;fontColor=#393C56;" edge="1" parent="2" source="7" target="7">
                    <mxGeometry relative="1" as="geometry"/>
                </mxCell>
                <mxCell id="9" value="&lt;font style=&quot;font-size: 21px&quot;&gt;AJAX Js&lt;/font&gt;" style="rounded=1;whiteSpace=wrap;html=1;sketch=0;strokeColor=#E07A5F;fillColor=#F2CC8F;fontColor=#393C56;" vertex="1" parent="1">
                    <mxGeometry x="385" y="180" width="120" height="60" as="geometry"/>
                </mxCell>
                <mxCell id="10" value="&lt;span style=&quot;font-size: 21px&quot;&gt;Form Object&lt;/span&gt;&lt;br&gt;&lt;font style=&quot;font-size: 15px&quot;&gt;OrderAddress&lt;/font&gt;" style="rounded=1;whiteSpace=wrap;html=1;sketch=0;strokeColor=#E07A5F;fillColor=#F2CC8F;fontColor=#393C56;" vertex="1" parent="1">
                    <mxGeometry x="700" y="433" width="130" height="60" as="geometry"/>
                </mxCell>
                <mxCell id="11" value="" style="endArrow=classic;html=1;strokeColor=#E07A5F;fillColor=#F2CC8F;fontColor=#393C56;exitX=1;exitY=0.5;exitDx=0;exitDy=0;" edge="1" parent="1" source="5">
                    <mxGeometry width="50" height="50" relative="1" as="geometry">
                        <mxPoint x="640" y="400" as="sourcePoint"/>
                        <mxPoint x="700" y="463" as="targetPoint"/>
                    </mxGeometry>
                </mxCell>
                <mxCell id="12" value="" style="endArrow=classic;html=1;strokeColor=#E07A5F;fillColor=#F2CC8F;fontColor=#393C56;exitX=0.5;exitY=0;exitDx=0;exitDy=0;entryX=0.5;entryY=1;entryDx=0;entryDy=0;" edge="1" parent="1" source="3" target="9">
                    <mxGeometry width="50" height="50" relative="1" as="geometry">
                        <mxPoint x="460" y="280" as="sourcePoint"/>
                        <mxPoint x="575" y="280" as="targetPoint"/>
                    </mxGeometry>
                </mxCell>
                <mxCell id="13" value="&lt;font style=&quot;font-size: 19px&quot;&gt;Orders&lt;/font&gt;" style="shape=cylinder3;whiteSpace=wrap;html=1;boundedLbl=1;backgroundOutline=1;size=15;rounded=0;sketch=0;strokeColor=#E07A5F;fillColor=#F2CC8F;fontColor=#393C56;" vertex="1" parent="1">
                    <mxGeometry x="860" y="310" width="110" height="80" as="geometry"/>
                </mxCell>
                <mxCell id="14" value="&lt;font style=&quot;font-size: 19px&quot;&gt;Addresses&lt;/font&gt;" style="shape=cylinder3;whiteSpace=wrap;html=1;boundedLbl=1;backgroundOutline=1;size=15;rounded=0;sketch=0;strokeColor=#E07A5F;fillColor=#F2CC8F;fontColor=#393C56;" vertex="1" parent="1">
                    <mxGeometry x="860" y="540" width="110" height="80" as="geometry"/>
                </mxCell>
                <mxCell id="15" value="" style="endArrow=classic;html=1;strokeColor=#E07A5F;fillColor=#F2CC8F;fontColor=#393C56;edgeStyle=orthogonalEdgeStyle;exitX=0.5;exitY=0;exitDx=0;exitDy=0;entryX=0;entryY=0.5;entryDx=0;entryDy=0;entryPerimeter=0;" edge="1" parent="1" source="10" target="13">
                    <mxGeometry width="50" height="50" relative="1" as="geometry">
                        <mxPoint x="730" y="210" as="sourcePoint"/>
                        <mxPoint x="650" y="90" as="targetPoint"/>
                        <Array as="points">
                            <mxPoint x="765" y="350"/>
                        </Array>
                    </mxGeometry>
                </mxCell>
                <mxCell id="16" value="" style="endArrow=classic;html=1;strokeColor=#E07A5F;fillColor=#F2CC8F;fontColor=#393C56;edgeStyle=orthogonalEdgeStyle;exitX=0.5;exitY=1;exitDx=0;exitDy=0;entryX=0;entryY=0.5;entryDx=0;entryDy=0;entryPerimeter=0;" edge="1" parent="1" source="10" target="14">
                    <mxGeometry width="50" height="50" relative="1" as="geometry">
                        <mxPoint x="760" y="610" as="sourcePoint"/>
                        <mxPoint x="855" y="527" as="targetPoint"/>
                        <Array as="points">
                            <mxPoint x="770" y="493"/>
                            <mxPoint x="770" y="580"/>
                        </Array>
                    </mxGeometry>
                </mxCell>
                <mxCell id="17" value="&lt;font style=&quot;font-size: 26px&quot;&gt;Pay.jp&lt;/font&gt;" style="ellipse;shape=cloud;whiteSpace=wrap;html=1;rounded=0;sketch=0;strokeColor=#E07A5F;fillColor=#F2CC8F;fontColor=#393C56;" vertex="1" parent="1">
                    <mxGeometry x="357.5" y="20" width="175" height="110" as="geometry"/>
                </mxCell>
                <mxCell id="18" value="" style="endArrow=classic;html=1;strokeColor=#E07A5F;fillColor=#F2CC8F;fontColor=#393C56;entryX=0.47;entryY=0.985;entryDx=0;entryDy=0;entryPerimeter=0;" edge="1" parent="1" target="17">
                    <mxGeometry width="50" height="50" relative="1" as="geometry">
                        <mxPoint x="440" y="180" as="sourcePoint"/>
                        <mxPoint x="490" y="130" as="targetPoint"/>
                    </mxGeometry>
                </mxCell>
            </root>
        </mxGraphModel>
    </diagram>
</mxfile>